<svg xmlns="http://www.w3.org/2000/svg" data-name="Layer 1" viewBox="0 0 888 710.80704">
  <rect x="244" y="150" width="400" height="400" rx="20" fill="#f2f2f2"/>
  <rect x="274" y="190" width="340" height="80" rx="10" fill="#fff" stroke="#6c63ff" stroke-width="2"/>
  <circle cx="314" cy="225" r="20" fill="#6c63ff"/>
  <path d="M308,225 L314,231 L324,215" stroke="#fff" stroke-width="2.5" fill="none" stroke-linecap="round" stroke-linejoin="round"/>
  <rect x="350" y="210" width="240" height="10" rx="5" fill="#e6e6e6"/>
  <rect x="350" y="230" width="180" height="10" rx="5" fill="#e6e6e6"/>
  <text x="350" y="260" font-family="Arial" font-size="12" fill="#3f3d56">Your Infrastructure</text>
  <rect x="274" y="290" width="340" height="80" rx="10" fill="#fff" stroke="#6c63ff" stroke-width="2"/>
  <circle cx="314" cy="325" r="20" fill="#6c63ff"/>
  <path d="M308,325 L314,331 L324,315" stroke="#fff" stroke-width="2.5" fill="none" stroke-linecap="round" stroke-linejoin="round"/>
  <rect x="350" y="310" width="240" height="10" rx="5" fill="#e6e6e6"/>
  <rect x="350" y="330" width="200" height="10" rx="5" fill="#e6e6e6"/>
  <text x="350" y="360" font-family="Arial" font-size="12" fill="#3f3d56">Your Data Center</text>
  <rect x="274" y="390" width="340" height="80" rx="10" fill="#fff" stroke="#6c63ff" stroke-width="2"/>
  <circle cx="314" cy="425" r="20" fill="#6c63ff"/>
  <path d="M308,425 L314,431 L324,415" stroke="#fff" stroke-width="2.5" fill="none" stroke-linecap="round" stroke-linejoin="round"/>
  <rect x="350" y="410" width="240" height="10" rx="5" fill="#e6e6e6"/>
  <rect x="350" y="430" width="220" height="10" rx="5" fill="#e6e6e6"/>
  <text x="350" y="460" font-family="Arial" font-size="12" fill="#3f3d56">Your Private Cloud</text>
  <path d="M444,120 L444,150" stroke="#6c63ff" stroke-width="3" fill="none"/>
  <polygon points="444,150 439,140 449,140" fill="#6c63ff"/>
  <rect x="394" y="70" width="100" height="50" rx="10" fill="#6c63ff"/>
  <path d="M424,85 Q434,75 444,85 Q454,75 464,85" stroke="#fff" stroke-width="2.5" fill="none" stroke-linecap="round"/>
  <circle cx="424" cy="102" r="4" fill="#fff"/>
  <circle cx="444" cy="102" r="4" fill="#fff"/>
  <circle cx="464" cy="102" r="4" fill="#fff"/>
  <text x="444" y="585" font-family="Arial" font-size="16" fill="#3f3d56" text-anchor="middle" font-weight="bold">100% Self-Hosted</text>
  <path d="M170,280 L244,280" stroke="#6c63ff" stroke-width="2" stroke-dasharray="5,5" fill="none"/>
  <circle cx="150" cy="280" r="20" fill="#6c63ff"/>
  <path d="M142,280 L156,280 M149,273 L149,287" stroke="#fff" stroke-width="2.5" stroke-linecap="round"/>
  <path d="M644,330 L718,330" stroke="#6c63ff" stroke-width="2" stroke-dasharray="5,5" fill="none"/>
  <circle cx="738" cy="330" r="20" fill="#6c63ff"/>
  <rect x="732" y="324" width="12" height="12" rx="2" fill="#fff"/>
  <path d="M738,318 L738,336" stroke="#fff" stroke-width="2.5" stroke-linecap="round"/>
</svg>
