<svg xmlns="http://www.w3.org/2000/svg" data-name="Layer 1" viewBox="0 0 888 710.80704">
  <rect x="100" y="250" width="140" height="200" rx="10" fill="#f2f2f2"/>
  <rect x="110" y="270" width="120" height="40" rx="5" fill="#6c63ff"/>
  <text x="170" y="295" font-family="Arial" font-size="14" fill="#fff" text-anchor="middle" font-weight="bold">Event A</text>
  <rect x="110" y="330" width="120" height="40" rx="5" fill="#6c63ff"/>
  <text x="170" y="355" font-family="Arial" font-size="14" fill="#fff" text-anchor="middle" font-weight="bold">Event B</text>
  <rect x="110" y="390" width="120" height="40" rx="5" fill="#6c63ff"/>
  <text x="170" y="415" font-family="Arial" font-size="14" fill="#fff" text-anchor="middle" font-weight="bold">Event C</text>
  <path d="M240,290 L320,340" stroke="#6c63ff" stroke-width="3" fill="none" marker-end="url(#arrowblue)"/>
  <path d="M240,350 L320,350" stroke="#6c63ff" stroke-width="3" fill="none" marker-end="url(#arrowblue)"/>
  <path d="M240,410 L320,360" stroke="#6c63ff" stroke-width="3" fill="none" marker-end="url(#arrowblue)"/>
  <rect x="320" y="300" width="180" height="100" rx="10" fill="#f2f2f2"/>
  <circle cx="360" cy="340" r="20" fill="#6c63ff"/>
  <circle cx="410" cy="340" r="20" fill="#6c63ff"/>
  <circle cx="460" cy="340" r="20" fill="#6c63ff"/>
  <text x="410" y="380" font-family="Arial" font-size="12" fill="#3f3d56" text-anchor="middle">Event Bus</text>
  <path d="M500,320 L580,240" stroke="#6c63ff" stroke-width="3" fill="none" marker-end="url(#arrowblue)"/>
  <path d="M500,350 L580,350" stroke="#6c63ff" stroke-width="3" fill="none" marker-end="url(#arrowblue)"/>
  <path d="M500,380 L580,460" stroke="#6c63ff" stroke-width="3" fill="none" marker-end="url(#arrowblue)"/>
  <rect x="580" y="200" width="140" height="80" rx="10" fill="#fff" stroke="#6c63ff" stroke-width="2"/>
  <circle cx="620" cy="235" r="12" fill="#6c63ff"/>
  <rect x="640" y="225" width="60" height="6" rx="3" fill="#e6e6e6"/>
  <rect x="640" y="240" width="60" height="6" rx="3" fill="#e6e6e6"/>
  <rect x="640" y="255" width="40" height="6" rx="3" fill="#e6e6e6"/>
  <rect x="580" y="310" width="140" height="80" rx="10" fill="#fff" stroke="#6c63ff" stroke-width="2"/>
  <circle cx="620" cy="345" r="12" fill="#6c63ff"/>
  <rect x="640" y="335" width="60" height="6" rx="3" fill="#e6e6e6"/>
  <rect x="640" y="350" width="60" height="6" rx="3" fill="#e6e6e6"/>
  <rect x="640" y="365" width="40" height="6" rx="3" fill="#e6e6e6"/>
  <rect x="580" y="420" width="140" height="80" rx="10" fill="#fff" stroke="#6c63ff" stroke-width="2"/>
  <circle cx="620" cy="455" r="12" fill="#6c63ff"/>
  <rect x="640" y="445" width="60" height="6" rx="3" fill="#e6e6e6"/>
  <rect x="640" y="460" width="60" height="6" rx="3" fill="#e6e6e6"/>
  <rect x="640" y="475" width="40" height="6" rx="3" fill="#e6e6e6"/>
  <defs>
    <marker id="arrowblue" markerWidth="10" markerHeight="10" refX="9" refY="3" orient="auto" markerUnits="strokeWidth">
      <path d="M0,0 L0,6 L9,3 z" fill="#6c63ff"/>
    </marker>
  </defs>
</svg>
