<svg xmlns="http://www.w3.org/2000/svg" data-name="Layer 1" viewBox="0 0 888 710.80704">
  <rect x="154" y="130" width="580" height="450" rx="15" fill="#f2f2f2"/>
  <rect x="170" y="155" width="250" height="400" rx="10" fill="#fff"/>
  <rect x="468" y="155" width="250" height="400" rx="10" fill="#fff"/>
  <circle cx="295" cy="205" r="25" fill="#6c63ff"/>
  <rect x="200" y="250" width="190" height="10" rx="5" fill="#e6e6e6"/>
  <rect x="200" y="280" width="190" height="10" rx="5" fill="#e6e6e6"/>
  <rect x="200" y="310" width="140" height="10" rx="5" fill="#e6e6e6"/>
  <text x="295" y="215" font-family="Arial" font-size="20" fill="#fff" text-anchor="middle" font-weight="bold">Go</text>
  <circle cx="593" cy="205" r="25" fill="#6c63ff"/>
  <rect x="498" y="250" width="190" height="10" rx="5" fill="#e6e6e6"/>
  <rect x="498" y="280" width="190" height="10" rx="5" fill="#e6e6e6"/>
  <rect x="498" y="310" width="140" height="10" rx="5" fill="#e6e6e6"/>
  <text x="593" y="215" font-family="Arial" font-size="16" fill="#fff" text-anchor="middle" font-weight="bold">Python</text>
  <path d="M420,380 L468,380" stroke="#6c63ff" stroke-width="3" fill="none"/>
  <polygon points="468,380 458,375 458,385" fill="#6c63ff"/>
  <rect x="200" y="360" width="190" height="8" rx="4" fill="#6c63ff"/>
  <rect x="200" y="385" width="190" height="8" rx="4" fill="#6c63ff"/>
  <rect x="200" y="410" width="190" height="8" rx="4" fill="#6c63ff"/>
  <rect x="498" y="360" width="190" height="8" rx="4" fill="#6c63ff"/>
  <rect x="498" y="385" width="190" height="8" rx="4" fill="#6c63ff"/>
  <rect x="498" y="410" width="190" height="8" rx="4" fill="#6c63ff"/>
  <circle cx="295" cy="480" r="15" fill="#6c63ff"/>
  <circle cx="345" cy="480" r="15" fill="#6c63ff"/>
  <circle cx="543" cy="480" r="15" fill="#6c63ff"/>
  <circle cx="643" cy="480" r="15" fill="#6c63ff"/>
  <rect x="354" y="90" width="180" height="30" rx="15" fill="#6c63ff"/>
  <text x="444" y="112" font-family="Arial" font-size="16" fill="#fff" text-anchor="middle" font-weight="bold">API Gateway</text>
</svg>
